<?xml version="1.0" standalone="yes"?>
<svg xmlns="http://www.w3.org/2000/svg" width="256" height="256">
<path style="fill:#ffffff; stroke:none;" d="M0 0L0 256L256 256L256 0L0 0z"/>
<path style="fill:#080808; stroke:none;" d="M98 18C102.576 19.8665 107.265 17.4374 112 17.0903C121.574 16.3885 131.4 17 141 17C137.041 15.3389 132.26 16 128 16C117.715 16 108.141 17.1717 98 18z"/>
<path style="fill:#1a1b1c; stroke:none;" d="M75 221C74.4948 217.002 73.5103 212.988 74.6373 209C80.2303 189.209 106.153 191.657 113.772 174.714C118.1 165.087 101.995 152.622 93.483 158.029C86.3147 162.581 93.5521 168.589 99 169L99 166L95 166C99.0542 158.677 108.439 166.85 103.663 171.49C97.4415 177.534 86.9411 170.809 83.3048 165.166C82.0126 163.161 80.213 160.643 81.1319 158.16C83.0014 153.108 89.4873 152.295 94 151.59C104.49 149.951 120.915 154.676 129.682 147.181C139.741 138.582 123.675 126.886 115.005 128.152C108.882 129.046 107.848 135.156 113 138C116.195 129.311 123.5 135.178 124 142C114.04 144.037 100.551 141.125 100.293 128C100.199 123.172 104.06 119.678 106.396 115.83C110.667 108.794 114.364 101.014 116.391 93C121.808 71.5852 116.235 47.2132 109 27C121.136 33.8215 131.506 47.2064 136.852 60C139.906 67.3093 140.692 76.9954 145.992 83.1157C150.967 88.8607 157.696 93.4485 163.715 98.0262C166.217 99.9299 170.064 101.568 170.573 105.044C171.537 111.623 163.152 112.751 161.712 118.043C160.368 122.986 166.352 125.691 167.249 130C168.103 134.097 163.284 136.187 163.191 140C163.111 143.246 166.848 145.45 166.169 148.83C165.291 153.204 160.859 154.839 161.123 160C161.466 166.669 166.74 172.583 160.811 178.402C152.335 186.721 142.555 183.112 132 183.004C115.338 182.832 97.4618 187.251 88.804 203C83.5712 212.519 89.742 221.248 99 223.846C102.323 224.778 106.562 225.824 109.682 223.682C112.885 221.484 112.09 216.169 108.656 214.604C105.326 213.087 102.248 214.705 100 217C101.6 217.97 102.663 218.72 104 220C99.3446 218.403 93.5836 212.462 101.023 209.604C108.039 206.909 120.69 213.926 119.728 222C119.236 226.121 115.677 229.332 114 233C126.159 233 138.041 233.083 150 230.489C176.906 224.654 202.183 206.26 216.396 182.83C233.965 153.867 237.614 114.745 225.532 83C220.906 70.8453 212.029 60.1708 202.997 51C185.469 33.2026 163.693 18.8589 138 17.0895C121.524 15.9549 102.696 16.221 87 21.6952C52.1709 33.8424 21.611 70.1464 17.1844 107C12.9332 142.394 22.0084 176.684 48.0147 202.039C54.7854 208.64 65.1971 219.892 75 221z"/>
<path style="fill:#000000; stroke:none;" d="M141 17C142.769 17.7789 144.036 17.9124 146 18C144.231 17.2211 142.964 17.0876 141 17z"/>
<path style="fill:#010101; stroke:none;" d="M147 18C148.248 18.6848 148.549 18.7488 150 19C148.752 18.3152 148.452 18.2512 147 18z"/>
<path style="fill:#000000; stroke:none;" d="M150 19C152.311 20.3931 154.309 20.7652 157 21C154.689 19.6069 152.691 19.2348 150 19z"/>
<path style="fill:#060607; stroke:none;" d="M163 23C164.75 24.2549 165.857 24.6137 168 25C166.249 23.7451 165.143 23.3863 163 23z"/>
<path style="fill:#010102; stroke:none;" d="M168.667 25.3333C168.222 25.7778 169.278 25.7222 169.333 25.6667C169.778 25.2222 168.722 25.2778 168.667 25.3333z"/>
<path style="fill:#020303; stroke:none;" d="M170.667 26.3333C170.222 26.7778 171.278 26.7222 171.333 26.6667C171.778 26.2222 170.722 26.2777 170.667 26.3333z"/>
<path style="fill:#010102; stroke:none;" d="M109 27L109 30C110.015 28.8607 110.309 28.3884 111 27L109 27z"/>
<path style="fill:#020203; stroke:none;" d="M172 27C173.458 28.0811 174.248 28.4361 176 29C174.457 27.7333 173.952 27.5108 172 27z"/>
<path style="fill:#060607; stroke:none;" d="M113 29C114.223 30.1951 114.42 30.3164 116 31C114.777 29.8048 114.58 29.6836 113 29z"/>
<path style="fill:#010101; stroke:none;" d="M176.667 29.3333C176.222 29.7778 177.278 29.7222 177.333 29.6667C177.778 29.2222 176.722 29.2778 176.667 29.3333z"/>
<path style="fill:#030303; stroke:none;" d="M178 30C179.223 31.1952 179.42 31.3164 181 32C179.777 30.8048 179.58 30.6836 178 30z"/>
<path style="fill:#060606; stroke:none;" d="M64 33C66.1403 33.4103 66.9625 32.9685 69 32C66.8597 31.5897 66.0375 32.0315 64 33z"/>
<path style="fill:#010101; stroke:none;" d="M181.667 32.3333C181.222 32.7778 182.278 32.7222 182.333 32.6667C182.778 32.2222 181.722 32.2777 181.667 32.3333M111 33L112 38C112.651 35.7659 112.318 34.9261 111 33z"/>
<path style="fill:#0b0b0c; stroke:none;" d="M56 40C59.5046 38.6407 61.7015 36.9707 64 34C60.6222 35.4321 58.3189 37.1594 56 40z"/>
<path style="fill:#030303; stroke:none;" d="M184 34C185.223 35.1952 185.42 35.3164 187 36C185.777 34.8048 185.58 34.6836 184 34z"/>
<path style="fill:#000000; stroke:none;" d="M187 36C188.223 37.1952 188.42 37.3164 190 38C188.777 36.8048 188.58 36.6836 187 36z"/>
<path style="fill:#000101; stroke:none;" d="M113 38L114 45C114.965 42.2944 114.466 40.45 113 38z"/>
<path style="fill:#000000; stroke:none;" d="M124.333 39.6667C124.278 39.7222 124.222 40.7778 124.667 40.3333C124.722 40.2777 124.778 39.2223 124.333 39.6667M192 40C193.45 41.6076 194.051 42.0643 196 43C194.55 41.3924 193.949 40.9357 192 40z"/>
<path style="fill:#101011; stroke:none;" d="M27 75C31.9957 70.1598 35.4008 63.4461 39.8048 58C44.5926 52.0791 50.6215 47.2159 55 41C43.7407 46.2506 30.5096 63.0731 27 75z"/>
<path style="fill:#000000; stroke:none;" d="M126 42C126.684 43.58 126.805 43.7772 128 45C127.316 43.42 127.195 43.2228 126 42z"/>
<path style="fill:#0d0e0e; stroke:none;" d="M196 43C198.67 48.7249 203.879 53.3925 209 57C206.33 51.2751 201.121 46.6075 196 43z"/>
<path style="fill:#010101; stroke:none;" d="M115 45C115.117 47.7301 115.499 50.3142 116 53C117.038 50.102 116.433 47.6958 115 45z"/>
<path style="fill:#000000; stroke:none;" d="M129.333 46.6667C129.278 46.7222 129.222 47.7778 129.667 47.3333C129.722 47.2778 129.778 46.2222 129.333 46.6667z"/>
<path style="fill:#010101; stroke:none;" d="M130 48C130.684 49.58 130.805 49.7772 132 51C131.316 49.4201 131.195 49.2227 130 48z"/>
<path style="fill:#000000; stroke:none;" d="M132.333 51.6667C132.278 51.7222 132.222 52.7778 132.667 52.3333C132.722 52.2778 132.778 51.2222 132.333 51.6667z"/>
<path style="fill:#050505; stroke:none;" d="M133 53L134 57C134.553 54.9922 134.303 54.6676 133 53z"/>
<path style="fill:#070708; stroke:none;" d="M117 55L117 92C119.241 87.3375 119 82.081 119 77C119 69.8825 119.977 61.6313 117 55z"/>
<path style="fill:#060707; stroke:none;" d="M135 57C136.732 64.4867 139.544 71.7293 142 79C143.623 73.496 138.727 61.2283 135 57z"/>
<path style="fill:#070708; stroke:none;" d="M209 57C210.104 59.3572 210.956 60.3762 213 62C211.896 59.6428 211.044 58.6238 209 57z"/>
<path style="fill:#0a0b0b; stroke:none;" d="M213 62C213.936 63.9485 214.392 64.5502 216 66C215.064 64.0515 214.608 63.4498 213 62z"/>
<path style="fill:#030304; stroke:none;" d="M216 66C216.684 67.58 216.805 67.7773 218 69C217.316 67.42 217.195 67.2228 216 66z"/>
<path style="fill:#020202; stroke:none;" d="M24 79L23 84C24.3182 82.0739 24.6513 81.2341 24 79z"/>
<path style="fill:#000000; stroke:none;" d="M143.333 79.6667C143.278 79.7222 143.222 80.7778 143.667 80.3333C143.722 80.2777 143.778 79.2223 143.333 79.6667M145 82C145.684 83.58 145.805 83.7772 147 85C146.316 83.42 146.195 83.2228 145 82z"/>
<path style="fill:#0f1010; stroke:none;" d="M22 84C19.7682 90.8614 17.3167 97.7359 17 105C20.4592 99.2629 22.2179 90.5287 24 84L22 84z"/>
<path style="fill:#0e0f0f; stroke:none;" d="M147 85C148.836 87.4469 150.237 88.7005 153 90C151.164 87.5531 149.763 86.2995 147 85z"/>
<path style="fill:#0c0c0d; stroke:none;" d="M227 88C227.387 92.8586 228.758 97.3164 230 102C231.505 97.7575 229.288 91.7455 227 88z"/>
<path style="fill:#060707; stroke:none;" d="M153 90C154.624 92.0436 155.643 92.8964 158 94C156.376 91.9564 155.357 91.1035 153 90z"/>
<path style="fill:#0b0c0c; stroke:none;" d="M116 93C114.81 96.6572 113.563 100.188 113 104C115.373 100.861 117.34 96.8641 116 93z"/>
<path style="fill:#0a0b0b; stroke:none;" d="M158 94C159.45 95.6076 160.051 96.0643 162 97C160.55 95.3924 159.949 94.9357 158 94z"/>
<path style="fill:#050505; stroke:none;" d="M162 97C163.223 98.1952 163.42 98.3164 165 99C163.777 97.8048 163.58 97.6836 162 97z"/>
<path style="fill:#010101; stroke:none;" d="M169 101C169.684 102.58 169.805 102.777 171 104C170.316 102.42 170.195 102.223 169 101z"/>
<path style="fill:#030404; stroke:none;" d="M231 103C231.472 113.982 232.685 124.951 231.91 136C231.461 142.416 229.278 148.552 229 155C235.156 144.79 233 129.424 233 118C233 112.897 233.453 107.614 231 103z"/>
<path style="fill:#030304; stroke:none;" d="M112 104L110 110C111.915 107.968 112.744 106.735 112 104z"/>
<path style="fill:#080808; stroke:none;" d="M16 105L15 138C17.0209 133.184 15.8132 127.166 16.0394 122C16.2846 116.4 18.2492 110.36 16 105z"/>
<path style="fill:#0d0d0e; stroke:none;" d="M170 106C168.413 109.007 166.655 110.873 164 113C168.081 113.551 171.03 109.922 170 106z"/>
<path style="fill:#010101; stroke:none;" d="M109.333 110.667C109.278 110.722 109.222 111.778 109.667 111.333C109.722 111.278 109.778 110.222 109.333 110.667z"/>
<path style="fill:#020202; stroke:none;" d="M108 112C107.014 113.479 107 113.203 107 115C108.289 113.557 108.401 113.766 108 112z"/>
<path style="fill:#040505; stroke:none;" d="M161 117C162.457 115.897 162.897 115.457 164 114C161.876 114.899 161.899 114.876 161 117z"/>
<path style="fill:#000000; stroke:none;" d="M106.333 115.667C106.278 115.722 106.222 116.778 106.667 116.333C106.722 116.278 106.778 115.222 106.333 115.667z"/>
<path style="fill:#080808; stroke:none;" d="M160 117C160.094 119.205 160.356 120.894 161 123C161.552 120.641 161.138 119.146 160 117z"/>
<path style="fill:#010102; stroke:none;" d="M104 118C103.014 119.479 103 119.203 103 121C104.289 119.557 104.401 119.766 104 118z"/>
<path style="fill:#020202; stroke:none;" d="M102 121C100.957 123.095 100.397 124.699 100 127C101.631 124.957 102.444 123.583 102 121z"/>
<path style="fill:#000000; stroke:none;" d="M162 123C163.324 125.687 164.313 126.676 167 128C165.451 125.864 164.136 124.549 162 123z"/>
<path style="fill:#0c0c0d; stroke:none;" d="M112 127C116.151 128.746 121.514 128.974 126 130C121.893 126.412 117.204 126.45 112 127z"/>
<path style="fill:#0a0a0a; stroke:none;" d="M111 138C109.39 133.895 109.934 131.831 112 128C107.793 130.32 106.646 135.177 111 138z"/>
<path style="fill:#010101; stroke:none;" d="M167 128L166 135C167.827 132.588 168.15 130.831 167 128z"/>
<path style="fill:#000000; stroke:none;" d="M126 130C127.549 132.136 128.864 133.451 131 135C129.676 132.313 128.687 131.324 126 130z"/>
<path style="fill:#020202; stroke:none;" d="M114 133C116.332 133.985 118.457 133.981 121 134C118.668 133.015 116.543 133.019 114 133z"/>
<path style="fill:#060606; stroke:none;" d="M122 135L123 142C124.15 139.169 123.827 137.412 122 135z"/>
<path style="fill:#070808; stroke:none;" d="M166 146C164.166 141.432 163.53 139.455 166 135C159.6 138.096 160.826 142.22 166 146z"/>
<path style="fill:#0d0d0e; stroke:none;" d="M111 139L116 141C116.71 136.457 113.911 135.981 111 139z"/>
<path style="fill:#020202; stroke:none;" d="M132 138L132 144C132.951 141.715 132.951 140.285 132 138z"/>
<path style="fill:#010101; stroke:none;" d="M16 140L17 150C18.3895 146.593 17.7035 143.204 16 140z"/>
<path style="fill:#000000; stroke:none;" d="M106.667 140.333C106.222 140.778 107.278 140.722 107.333 140.667C107.778 140.222 106.722 140.278 106.667 140.333z"/>
<path style="fill:#000101; stroke:none;" d="M108.667 141.333C108.222 141.778 109.278 141.722 109.333 141.667C109.778 141.222 108.722 141.278 108.667 141.333z"/>
<path style="fill:#040404; stroke:none;" d="M114 143C116.052 143.874 117.747 143.953 120 144C117.948 143.126 116.253 143.047 114 143z"/>
<path style="fill:#000000; stroke:none;" d="M166 146L166 151C166.83 148.969 166.83 148.03 166 146M112 151C117.425 153.277 123.941 151.539 129 149C123.926 148.095 117.483 150.985 112 151z"/>
<path style="fill:#070708; stroke:none;" d="M18 151L20 160C21.1914 156.641 20.078 153.793 18 151z"/>
<path style="fill:#0e0e0f; stroke:none;" d="M94 151C99.2224 153.191 106.368 152 112 152C106.778 149.809 99.6322 151 94 151z"/>
<path style="fill:#010102; stroke:none;" d="M84 153C88.7391 154.85 95.8128 153 101 153C95.7878 150.813 89.4478 152.312 84 153z"/>
<path style="fill:#000000; stroke:none;" d="M228 155C226.81 158.657 225.563 162.188 225 166C227.373 162.861 229.34 158.864 228 155z"/>
<path style="fill:#0c0c0d; stroke:none;" d="M81 156C80.2361 158.746 80.2361 160.254 81 163C81.7263 160.571 81.7263 158.429 81 156z"/>
<path style="fill:#09090a; stroke:none;" d="M96 156C99.659 157.989 103.942 159.061 108 160C104.562 156.97 100.51 156.206 96 156z"/>
<path style="fill:#050505; stroke:none;" d="M160 156C160.024 164.304 163.161 170.745 161 179C166.437 173.197 162.82 162.524 160 156M90 161C91.4566 159.897 91.8966 159.457 93 158C90.8764 158.899 90.8993 158.876 90 161z"/>
<path style="fill:#040404; stroke:none;" d="M21 160C21.5303 163.54 22.7168 166.669 24 170C24.9988 166.399 23.1893 162.896 21 160z"/>
<path style="fill:#000000; stroke:none;" d="M108 160C109.549 162.136 110.864 163.451 113 165C111.676 162.313 110.687 161.324 108 160z"/>
<path style="fill:#020202; stroke:none;" d="M89 161C89.3084 165.089 90.3002 167.135 94 169L89 161z"/>
<path style="fill:#080808; stroke:none;" d="M95 163L103 164C100.252 161.925 98.2718 162.065 95 163z"/>
<path style="fill:#0d0e0e; stroke:none;" d="M83 165C84.9726 169.128 87.5144 171.094 92 172C89.1792 169.457 86.1388 167.139 83 165z"/>
<path style="fill:#0f1010; stroke:none;" d="M105 166C103.051 172.738 98.0161 172.424 92 172C96.8617 175.321 107.948 173.854 105 166z"/>
<path style="fill:#070707; stroke:none;" d="M224 166L223 171C224.318 169.074 224.651 168.234 224 166z"/>
<path style="fill:#010202; stroke:none;" d="M25 170L26 174C26.393 172.076 26.1456 171.64 25 170z"/>
<path style="fill:#000101; stroke:none;" d="M222.333 171.667C222.278 171.722 222.222 172.778 222.667 172.333C222.722 172.278 222.778 171.222 222.333 171.667z"/>
<path style="fill:#010101; stroke:none;" d="M221.333 173.667C221.278 173.722 221.222 174.778 221.667 174.333C221.722 174.278 221.778 173.222 221.333 173.667M27 174L28 178C28.393 176.076 28.1456 175.64 27 174z"/>
<path style="fill:#000000; stroke:none;" d="M220.333 175.667C220.278 175.722 220.222 176.778 220.667 176.333C220.722 176.278 220.778 175.222 220.333 175.667M112 176L110 181C111.848 179.22 112.566 178.509 112 176M219.333 177.667C219.278 177.722 219.222 178.778 219.667 178.333C219.722 178.278 219.778 177.222 219.333 177.667z"/>
<path style="fill:#040404; stroke:none;" d="M29 178C29.5471 179.875 30.11 181.255 31 183C31.375 180.581 30.6927 179.782 29 178z"/>
<path style="fill:#020202; stroke:none;" d="M218 179C217.014 180.479 217 180.203 217 182C218.289 180.557 218.401 180.766 218 179z"/>
<path style="fill:#000000; stroke:none;" d="M107 183C108.58 182.316 108.777 182.195 110 181C108.42 181.684 108.223 181.805 107 183z"/>
<path style="fill:#040405; stroke:none;" d="M116 183C120.477 184.874 125.287 183.108 130 183.015C139.126 182.836 147.905 185.165 157 183C153.512 181.927 149.682 183.144 146 182.91C135.755 182.258 126.245 182.191 116 183z"/>
<path style="fill:#000000; stroke:none;" d="M216.333 182.667C216.278 182.722 216.222 183.778 216.667 183.333C216.722 183.278 216.778 182.222 216.333 182.667z"/>
<path style="fill:#010202; stroke:none;" d="M32 183C32.6836 184.58 32.8048 184.777 34 186C33.3164 184.42 33.1952 184.223 32 183z"/>
<path style="fill:#010101; stroke:none;" d="M105.667 183.333C105.222 183.778 106.278 183.722 106.333 183.667C106.778 183.222 105.722 183.278 105.667 183.333z"/>
<path style="fill:#000000; stroke:none;" d="M102 186C103.58 185.316 103.777 185.195 105 184C103.42 184.684 103.223 184.805 102 186z"/>
<path style="fill:#070708; stroke:none;" d="M110 185C111.943 185.622 112.949 185.436 115 185C113.057 184.378 112.051 184.564 110 185z"/>
<path style="fill:#010101; stroke:none;" d="M214 185C213.014 186.479 213 186.203 213 188C214.289 186.557 214.401 186.766 214 185M34 186C34.6836 187.58 34.8048 187.777 36 189C35.3164 187.42 35.1952 187.223 34 186z"/>
<path style="fill:#000000; stroke:none;" d="M100.667 186.333C100.222 186.778 101.278 186.722 101.333 186.667C101.778 186.222 100.722 186.278 100.667 186.333z"/>
<path style="fill:#010101; stroke:none;" d="M98.6667 187.333C98.2222 187.778 99.2778 187.722 99.3333 187.667C99.7778 187.222 98.7222 187.278 98.6667 187.333z"/>
<path style="fill:#010102; stroke:none;" d="M96.6667 188.333C96.2222 188.778 97.2778 188.722 97.3333 188.667C97.7778 188.222 96.7222 188.278 96.6667 188.333z"/>
<path style="fill:#000000; stroke:none;" d="M212 188C211.014 189.479 211 189.203 211 191C212.289 189.557 212.401 189.766 212 188z"/>
<path style="fill:#020202; stroke:none;" d="M94.6667 189.333C94.2222 189.778 95.2778 189.722 95.3333 189.667C95.7778 189.222 94.7222 189.278 94.6667 189.333z"/>
<path style="fill:#010101; stroke:none;" d="M37 190C37.6836 191.58 37.8048 191.777 39 193C38.3164 191.42 38.1952 191.223 37 190z"/>
<path style="fill:#010102; stroke:none;" d="M92.6667 190.333C92.2222 190.778 93.2778 190.722 93.3333 190.667C93.7778 190.222 92.7222 190.278 92.6667 190.333z"/>
<path style="fill:#020202; stroke:none;" d="M90.6667 191.333C90.2222 191.778 91.2778 191.722 91.3333 191.667C91.7778 191.222 90.7222 191.278 90.6667 191.333z"/>
<path style="fill:#090909; stroke:none;" d="M91 199C94.3902 196.681 97.4203 194.197 100 191C95.7467 192.649 92.9725 194.861 91 199z"/>
<path style="fill:#010202; stroke:none;" d="M88.6667 192.333C88.2222 192.778 89.2777 192.722 89.3333 192.667C89.7778 192.222 88.7222 192.278 88.6667 192.333z"/>
<path style="fill:#000000; stroke:none;" d="M85 195C86.58 194.316 86.7772 194.195 88 193C86.42 193.684 86.2228 193.805 85 195M40 194C40.9357 195.949 41.3924 196.55 43 198C42.0643 196.051 41.6076 195.45 40 194M207 194C205.652 195.768 204.878 196.982 204 199C206.015 197.356 207.098 196.587 207 194M82 197C83.58 196.316 83.7772 196.195 85 195C83.42 195.684 83.2228 195.805 82 197z"/>
<path style="fill:#0e0e0f; stroke:none;" d="M43 198C46.1787 202.512 49.9592 206.649 55 209C51.8213 204.488 48.0408 200.351 43 198z"/>
<path style="fill:#000000; stroke:none;" d="M80 198C79.0427 199.517 78.6128 200.339 78 202C79.63 200.485 80.1631 200.145 80 198z"/>
<path style="fill:#080909; stroke:none;" d="M90 199C89.0143 200.479 89 200.203 89 202C90.2892 200.557 90.4009 200.766 90 199z"/>
<path style="fill:#010101; stroke:none;" d="M77.3333 202.667C77.2778 202.722 77.2222 203.778 77.6667 203.333C77.7222 203.278 77.7778 202.222 77.3333 202.667z"/>
<path style="fill:#020202; stroke:none;" d="M88 202C87.0143 203.479 87 203.203 87 205C88.2892 203.557 88.4009 203.766 88 202z"/>
<path style="fill:#010101; stroke:none;" d="M76.3333 204.667C76.2778 204.722 76.2222 205.778 76.6667 205.333C76.7222 205.278 76.7778 204.222 76.3333 204.667z"/>
<path style="fill:#000000; stroke:none;" d="M193 209C195.357 207.896 196.376 207.044 198 205C195.643 206.104 194.624 206.956 193 209z"/>
<path style="fill:#050505; stroke:none;" d="M75 206C73.8639 210.772 75.3711 216.899 73 221C77.0055 222.51 76.1684 208.676 75 206z"/>
<path style="fill:#080808; stroke:none;" d="M86 206C85.3599 208.934 85.3599 211.066 86 214C87.1614 211.23 87.1614 208.77 86 206z"/>
<path style="fill:#060606; stroke:none;" d="M55 209C56.6239 211.044 57.6428 211.896 60 213C58.3761 210.956 57.3572 210.104 55 209z"/>
<path style="fill:#000000; stroke:none;" d="M96 215C100.301 211.207 103.272 210.02 109 210C103.554 207.715 97.7271 209.047 96 215M188 213C189.58 212.316 189.777 212.195 191 211C189.42 211.684 189.223 211.805 188 213z"/>
<path style="fill:#0a0b0b; stroke:none;" d="M97 215C98.6981 218.242 100.427 219.274 104 220C102.778 218.267 101.991 217.849 100 217C103.362 214.581 105.894 214.048 110 214C105.183 211.172 101.84 213.976 97 215z"/>
<path style="fill:#0c0c0d; stroke:none;" d="M114 212C115.864 214.925 118.875 218.27 118.377 222C117.785 226.433 113.707 229.398 113 234L137 234C130.555 231.296 120.968 233 114 233C118.654 226.158 124.183 217.024 114 212z"/>
<path style="fill:#080809; stroke:none;" d="M60 213C61.2228 214.195 61.42 214.316 63 215C61.7772 213.805 61.58 213.684 60 213z"/>
<path style="fill:#020202; stroke:none;" d="M87 214L88 218C88.393 216.076 88.1456 215.64 87 214z"/>
<path style="fill:#090909; stroke:none;" d="M110 214C110.953 217.051 111.796 219.799 112 223C113.502 219.378 112.746 216.689 110 214z"/>
<path style="fill:#000000; stroke:none;" d="M184 216C185.58 215.316 185.777 215.195 187 214C185.42 214.684 185.223 214.805 184 216z"/>
<path style="fill:#080808; stroke:none;" d="M63 215C64.2228 216.195 64.42 216.316 66 217C64.7772 215.805 64.58 215.684 63 215z"/>
<path style="fill:#010101; stroke:none;" d="M182.667 216.333C182.222 216.778 183.278 216.722 183.333 216.667C183.778 216.222 182.722 216.278 182.667 216.333z"/>
<path style="fill:#050505; stroke:none;" d="M66 217C67.2228 218.195 67.42 218.316 69 219C67.7772 217.805 67.58 217.684 66 217z"/>
<path style="fill:#000000; stroke:none;" d="M179.667 218.333C179.222 218.778 180.278 218.722 180.333 218.667C180.778 218.222 179.722 218.278 179.667 218.333z"/>
<path style="fill:#020202; stroke:none;" d="M177.667 219.333C177.222 219.778 178.278 219.722 178.333 219.667C178.778 219.222 177.722 219.278 177.667 219.333z"/>
<path style="fill:#000000; stroke:none;" d="M174 222C175.58 221.316 175.777 221.195 177 220C175.42 220.684 175.223 220.805 174 222z"/>
<path style="fill:#050505; stroke:none;" d="M167 224C169.605 224.729 171.45 223.921 174 223C171.395 222.271 169.55 223.079 167 224z"/>
<path style="fill:#010101; stroke:none;" d="M96 223C97.7505 224.255 98.8574 224.614 101 225C99.2495 223.745 98.1427 223.386 96 223z"/>
<path style="fill:#000000; stroke:none;" d="M109 225C110.58 224.316 110.777 224.195 112 223C110.42 223.684 110.223 223.805 109 225z"/>
<path style="fill:#010101; stroke:none;" d="M103 225C104.506 225.683 105.315 225.826 107 226C105.494 225.317 104.685 225.174 103 225z"/>
<path style="fill:#030303; stroke:none;" d="M165.667 225.333C165.222 225.778 166.278 225.722 166.333 225.667C166.778 225.222 165.722 225.278 165.667 225.333z"/>
<path style="fill:#020203; stroke:none;" d="M157 228C158.943 228.622 159.949 228.436 162 228C160.057 227.378 159.051 227.564 157 228z"/>
<path style="fill:#000000; stroke:none;" d="M153 229C154.506 229.683 155.315 229.826 157 230C155.494 229.317 154.685 229.174 153 229z"/>
<path style="fill:#030303; stroke:none;" d="M150 230C151.248 230.685 151.548 230.749 153 231C151.752 230.315 151.452 230.251 150 230z"/>
<path style="fill:#030404; stroke:none;" d="M137 232C140.893 233.63 144.921 232.515 149 232C145.197 230.449 141.031 231.827 137 232z"/>
</svg>
